<?xml version="1.0"?>
<svg width="50" height="50" xmlns="http://www.w3.org/2000/svg">

 <g>
  <title>background</title>
  <rect fill="none" id="canvas_background" height="52" width="52" y="-1" x="-1"/>
 </g>
 <g>
  <title>Layer 1</title>
  <path fill="#ffffff" id="svg_2" d="m25.070005,0.352207c-13.599,0 -24.624,11.023001 -24.624,24.622999c0,13.6 11.024001,24.624998 24.624,24.624998c13.601999,0 24.624998,-11.024998 24.624998,-24.624998c0,-13.599998 -11.024002,-24.622999 -24.624998,-24.622999zm2.151999,14.024999c-0.469,-0.667999 -1.337999,-1.005999 -2.143,-1.005999l-0.268,0c-1.34,0.135 -2.545,0.871 -2.879,2.345999c-0.066,0.334002 -0.268,0.668001 -0.67,0.735998l-3.747999,-0.468998c-0.269001,-0.066 -0.67,-0.268 -0.538,-0.802999c0.804998,-4.221 4.42,-5.693 7.834,-5.891l0.805,0c1.875,0 4.284998,0.535 5.823999,1.939c1.874998,1.74 1.673998,4.086 1.673998,6.626999l0,6.026999c0,1.809002 0.737999,2.611002 1.473,3.549002c0.202999,0.334 0.27,0.737999 -0.065998,1.005999c-0.734001,0.67 -2.141003,1.875002 -2.944998,2.545c-0.268002,0.197001 -0.604,0.197001 -0.938004,0.064001c-1.271,-1.07 -1.473,-1.539001 -2.208998,-2.543003c-1.273001,1.338003 -2.344,2.074003 -3.617001,2.479002c-0.802999,0.197001 -1.674,0.331999 -2.743999,0.331999c-3.215,0 -5.76,-2.006001 -5.76,-5.959c0,-3.144997 1.676001,-5.288998 4.153,-6.294998c1.271,-0.601999 2.812,-0.868999 4.351999,-1.070002c1.004,-0.134998 2.01,-0.200998 2.879002,-0.268l0,-0.532997c0,-0.936003 0.067999,-2.008001 -0.469002,-2.813002zm10.140999,21.097998c-0.389,0.312 -0.805,0.592003 -1.219002,0.84l-0.017998,0.012001c-3.164001,1.987999 -7.241999,3.207001 -10.847998,3.285c-0.113001,0.004002 -0.225,0.006001 -0.336,0.006001c-5.668001,-0.001999 -9.881999,-3.102001 -13.726999,-6.438999c-0.188,-0.150002 -0.32,-0.377003 -0.318,-0.625c-0.002,-0.193001 0.08,-0.382996 0.217,-0.507996c0.138,-0.131004 0.325999,-0.199005 0.511,-0.199005c0.146,0 0.289,0.039003 0.433,0.117001c4.097999,2.272999 8.158999,4.577999 13.132998,4.577999c0.115002,0 0.232,0 0.348001,-0.004002c3.166,-0.067997 6.584,-0.841999 9.839996,-2.161999l0,-0.004002l0.301003,-0.118999l0.23,-0.095997c0.155998,-0.068001 0.321999,-0.143002 0.483997,-0.207001c0.145,-0.068001 0.301003,-0.104 0.451,-0.104c0.477001,0.001999 0.918003,0.351997 0.926003,0.870998c0.003998,0.295002 -0.164001,0.577 -0.408001,0.757999zm1.859001,1.375c-0.158001,0.123001 -0.34,0.207001 -0.555,0.209l-0.004002,0c-0.145,0 -0.315998,-0.049 -0.446999,-0.174c-0.135002,-0.126999 -0.199001,-0.313999 -0.195,-0.470997c0,-0.107002 0.021,-0.205002 0.056999,-0.295002c0.146,-0.387001 0.367001,-0.968998 0.550999,-1.553001c0.186001,-0.577999 0.324001,-1.175999 0.318001,-1.497997c0.001999,-0.084 -0.007999,-0.141003 -0.015999,-0.167999c-0.006001,-0.002003 -0.014,-0.006001 -0.025002,-0.012001c-0.035,-0.018002 -0.098,-0.037003 -0.181999,-0.055c-0.167999,-0.039001 -0.41,-0.056999 -0.681999,-0.055c-0.385002,0 -0.827999,0.035 -1.246002,0.076c-0.486,0.074001 -0.902,0.112999 -1.185997,0.172001l-0.023003,0.006001l-0.027,0.001999c-0.028999,0.001999 -0.060997,0.003998 -0.095997,0.003998c-0.145,0 -0.309002,-0.038998 -0.449001,-0.149998c-0.143002,-0.115002 -0.227001,-0.306999 -0.223,-0.477001c0.009998,-0.308998 0.18,-0.509998 0.382999,-0.66c0.326,-0.237997 0.678001,-0.437998 1.063999,-0.595999l0,-0.017998l0.330002,-0.107004l0.009998,-0.001999l0.586002,-0.196999l0,0.039c0.577999,-0.127001 1.155998,-0.176001 1.679996,-0.176001c0.729,0.002001 1.332001,0.09 1.746002,0.248001c0.140999,0.060997 0.267998,0.115 0.402,0.261999l0.015999,0.02l0.014,0.020998c0.132999,0.199001 0.201,0.438002 0.213001,0.757999l0.003998,0.188c-0.021999,1.200001 -0.535999,3.325001 -2.017998,4.659z"/>
  <path fill="#ffffff" id="svg_3" d="m27.691006,20.698009c-1.004002,0 -2.008001,0.063999 -2.879002,0.266001c-1.605,0.471001 -2.879,1.475 -2.879,3.616999c0,1.674002 0.871,2.811001 2.344,2.811001c0.201,0 0.402,-0.065998 0.535,-0.065998c0.871,-0.201 1.676001,-0.805004 2.143002,-1.740002c0.804998,-1.34 0.736,-2.547001 0.736,-4.084l0,-0.804001z"/>
 </g>
</svg>