<?xml version="1.0"?>
<svg width="50" height="50" xmlns="http://www.w3.org/2000/svg">

 <g>
  <title>background</title>
  <rect fill="none" id="canvas_background" height="52" width="52" y="-1" x="-1"/>
 </g>
 <g>
  <title>Layer 1</title>
  <path stroke="null" id="svg_1" fill-rule="evenodd" clip-rule="evenodd" fill="#ffffff" d="m21.582281,38.414001l5.516729,0l0,-13.351728l3.680275,0l0.487537,-4.600548l-4.167812,0l0.005726,-2.303545c0,-1.199219 0.114521,-1.842999 1.835636,-1.842999l2.300272,0l0,-4.601364l-3.681089,0c-4.421398,0 -5.977274,2.232376 -5.977274,5.985453l0,2.762455l-2.755909,0l0,4.601366l2.755909,0l0,13.35091zm3.464319,11.190521c-13.552962,0 -24.540611,-10.987652 -24.540611,-24.540613c0,-13.55378 10.987649,-24.540611 24.540611,-24.540611s24.540611,10.986831 24.540611,24.540611c0,13.552961 -10.987652,24.540613 -24.540611,24.540613z"/>
 </g>
</svg>