<?xml version="1.0"?>
<svg width="50" height="50" xmlns="http://www.w3.org/2000/svg">

 <g>
  <title>background</title>
  <rect fill="none" id="canvas_background" height="52" width="52" y="-1" x="-1"/>
 </g>
 <g>
  <title>Layer 1</title>
  <circle fill="#ffffff" id="svg_2" r="4.4" cy="25.162973" cx="24.905737"/>
  <path fill="#ffffff" id="svg_3" d="m30.405735,14.362974l-10.999998,0c-1.6,0 -3,0.499999 -3.9,1.399999c-0.900002,0.900001 -1.400002,2.3 -1.400002,3.900001l0,11c0,1.599997 0.5,2.999998 1.5,3.999998c1,0.900002 2.300001,1.400002 3.900002,1.400002l10.899998,0c1.600002,0 3,-0.5 3.900002,-1.400002c1,-0.900002 1.5,-2.299999 1.5,-3.9l0,-10.999998c0,-1.6 -0.5,-2.9 -1.400002,-3.900001c-1,-1 -2.299999,-1.499999 -4,-1.499999zm-5.499998,17.599998c-3.800001,0 -6.800001,-3.099998 -6.800001,-6.799999c0,-3.799999 3.1,-6.799999 6.800001,-6.799999s6.9,3 6.9,6.799999c0,3.799999 -3.1,6.799999 -6.9,6.799999zm7.1,-12.299999c-0.900002,0 -1.600002,-0.700001 -1.600002,-1.6s0.700001,-1.6 1.600002,-1.6s1.599998,0.700001 1.599998,1.6s-0.700001,1.6 -1.599998,1.6z"/>
  <path fill="#ffffff" id="svg_4" d="m25.105736,0.362973c-13.599999,0 -24.599999,11.000001 -24.599999,24.6c0,13.6 11,24.6 24.599999,24.6c13.600002,0 24.600002,-11 24.600002,-24.6c0.099998,-13.599998 -11,-24.6 -24.600002,-24.6zm13.100002,30.399999c0,2.300001 -0.800003,4.300001 -2.200001,5.699999c-1.400002,1.400002 -3.400002,2.100002 -5.600002,2.100002l-10.899998,0c-2.200001,0 -4.200001,-0.700001 -5.6,-2.100002c-1.5,-1.399998 -2.200001,-3.399998 -2.200001,-5.699999l0,-10.999998c0,-4.600001 3.1,-7.800001 7.800001,-7.800001l11,0c2.299999,0 4.200001,0.8 5.599998,2.2c1.400002,1.4 2.100002,3.3 2.100002,5.600001l0,10.999998z"/>
 </g>
</svg>