<?xml version="1.0"?>
<svg width="50" height="50" xmlns="http://www.w3.org/2000/svg">

 <g>
  <title>background</title>
  <rect fill="none" id="canvas_background" height="52" width="52" y="-1" x="-1"/>
 </g>
 <g>
  <title>Layer 1</title>
  <path fill="#ffffff" stroke="null" id="svg_1" d="m34.94743,8.948466l-17.312487,2.663496l0.004473,19.407361c0,0 -3.016051,0.172188 -3.602714,0.354233c-2.561391,0.795691 -4.108431,3.145151 -3.455265,5.247602c0.653056,2.102257 3.259115,3.161716 5.820495,2.366154c2.108065,-0.654861 4.14427,-2.437126 4.252419,-4.19342c0.001911,0.001011 0.002796,0.001228 0.002796,0.001228l0,-0.056419c0.00449,-0.101097 0.005049,-0.202194 0,-0.303307l0,-16.402157l12.11237,-1.606499l-0.000237,13.050243l-1.917742,-0.0861c-0.182045,-0.009071 -0.366093,-0.009739 -0.551727,-0.001234l-0.05777,-0.000227l0.003914,0.003021c-0.471119,0.025648 -0.949852,0.108383 -1.422325,0.255276c-2.561489,0.795574 -4.108322,3.145021 -3.455374,5.247271c0.653166,2.10247 3.259226,3.161716 5.820623,2.366135c2.131006,-0.661896 3.680079,-2.400623 3.757883,-4.177071l0.000668,-24.135587z"/>
  <path fill="#ffffff" stroke="null" id="svg_2" d="m24.732018,2.7609c3.030666,0 5.969738,0.593095 8.735325,1.762891c2.672318,1.130231 5.072685,2.7488 7.13443,4.810547c2.061749,2.061747 3.680218,4.46211 4.810547,7.134331c1.169796,2.765587 1.76289,5.704559 1.76289,8.735325s-0.593094,5.969738 -1.76289,8.735327c-1.130329,2.672318 -2.748798,5.072685 -4.810547,7.13443s-4.462112,3.680218 -7.13443,4.810547c-2.765587,1.169796 -5.704559,1.76289 -8.735325,1.76289s-5.969639,-0.593094 -8.735325,-1.76289c-2.672222,-1.130329 -5.072585,-2.748798 -7.134332,-4.810547c-2.061747,-2.061745 -3.680316,-4.462112 -4.810547,-7.13443c-1.169796,-2.765589 -1.762891,-5.70466 -1.762891,-8.735327s0.593095,-5.969639 1.762891,-8.735325c1.130231,-2.672221 2.7488,-5.072584 4.810547,-7.134331c2.061747,-2.061747 4.46211,-3.680316 7.134332,-4.810547c2.765686,-1.169796 5.704657,-1.762891 8.735325,-1.762891m0,-1.963569c-13.479405,0 -24.406663,10.927258 -24.406663,24.406662c0,13.479502 10.927258,24.406763 24.406663,24.406763c13.4795,0 24.406761,-10.927261 24.406761,-24.406763c0,-13.479404 -10.927261,-24.406662 -24.406761,-24.406662l0,0z"/>
 </g>
</svg>