<?xml version="1.0"?>
<svg width="50" height="50" xmlns="http://www.w3.org/2000/svg">

 <g>
  <title>background</title>
  <rect fill="none" id="canvas_background" height="52" width="52" y="-1" x="-1"/>
 </g>
 <g>
  <title>Layer 1</title>
  <path stroke="null" id="svg_2" fill="#ffffff" d="m42.101231,7.782351c-4.583706,-4.583707 -10.678032,-7.107533 -17.160463,-7.107533c-6.481874,0 -12.576196,2.523826 -17.159345,7.107533c-9.461843,9.462401 -9.461287,24.857968 0.000557,34.319814c4.583709,4.583706 10.67803,7.108093 17.159908,7.108093s12.576191,-2.52383 17.159344,-7.107536s7.108093,-10.677477 7.108093,-17.159908s-2.524384,-12.576754 -7.108093,-17.160462zm-0.788483,33.53188c-4.372921,4.372929 -10.187323,6.780769 -16.370861,6.780769s-11.998496,-2.408398 -16.371419,-6.781326c-9.026894,-9.02689 -9.026894,-23.715385 -0.00056,-32.742836c4.372924,-4.372923 10.187317,-6.780764 16.370859,-6.780764c6.184658,0 11.99906,2.407841 16.371981,6.780764c4.372925,4.373481 6.781319,10.187319 6.781319,16.371416s-2.408394,11.998503 -6.781319,16.371977z"/>
  <path stroke="null" id="svg_3" fill="#ffffff" d="m23.127024,15.444137c-0.231468,-0.231468 -0.605597,-0.231468 -0.837065,0s-0.231468,0.605596 0,0.837064l7.971649,7.971647l-7.972239,7.972837c-0.231468,0.231464 -0.231468,0.605591 0,0.837063c0.115435,0.115433 0.266987,0.17345 0.418531,0.17345s0.303097,-0.058018 0.418531,-0.17345l8.390184,-8.391367c0.231461,-0.231466 0.231461,-0.605598 0,-0.837065l-8.389593,-8.39018z"/>
 </g>
</svg>