<?xml version="1.0"?>
<svg width="50" height="50" xmlns="http://www.w3.org/2000/svg">
 <title/>

 <g>
  <title>background</title>
  <rect fill="none" id="canvas_background" height="52" width="52" y="-1" x="-1"/>
 </g>
 <g>
  <title>Layer 1</title>
  <path stroke="null" id="svg_1" fill="#ffffff" d="m25.061991,49.732853c13.679342,0 24.768644,-11.089302 24.768644,-24.768644c0,-13.67934 -11.089302,-24.768644 -24.768644,-24.768644c-13.67934,0 -24.768644,11.089303 -24.768644,24.768644c0,13.679342 11.089303,24.768644 24.768644,24.768644z"/>
  <path stroke="null" id="svg_2" fill="#000000" d="m33.972187,35.359993c-0.202148,-0.005924 -0.403664,-0.065895 -0.586376,-0.181206c-0.001949,0 -0.235847,-0.150887 -0.715969,-0.412483c-0.480755,-0.262257 -1.188955,-0.623348 -2.071434,-1.002232c-1.763021,-0.763039 -4.230995,-1.60778 -6.989239,-1.931978c-0.846844,-0.098841 -1.661942,-0.159462 -2.441406,-0.185158c-3.505312,-0.117294 -6.260307,0.413153 -7.383178,0.675398c-0.375797,0.087635 -0.548798,0.141014 -0.54945,0.141014c-0.625247,0.186478 -1.279664,-0.179222 -1.463672,-0.814442c-0.182069,-0.636515 0.175589,-1.303352 0.800195,-1.489172c0.079694,-0.023066 3.633601,-1.076689 8.670617,-0.911301c0.83972,0.028992 1.722855,0.092911 2.635134,0.200315c6.119719,0.728115 10.674685,3.650467 10.758905,3.694614c0.553341,0.352524 0.720501,1.093163 0.374508,1.653908c-0.22937,0.376911 -0.631737,0.576561 -1.038635,0.562721zm4.2906,-7.076229c-0.288975,0.468498 -0.79047,0.720211 -1.299103,0.702412c-0.252689,-0.00856 -0.504734,-0.083679 -0.732803,-0.228645c-0.001297,0.001984 -0.053139,-0.034264 -0.192436,-0.116631c-0.140602,-0.083021 -0.351833,-0.204926 -0.626553,-0.354498c-0.553341,-0.30179 -1.364544,-0.716913 -2.381145,-1.155102c-2.028032,-0.877041 -4.866623,-1.845654 -8.03759,-2.217297c-0.9706,-0.114653 -1.909462,-0.182518 -2.806847,-0.21217c-4.033369,-0.13574 -7.2037,0.473766 -8.492436,0.775557c-0.430223,0.101469 -0.625248,0.159462 -0.626544,0.16144c-0.780759,0.230627 -1.601042,-0.225353 -1.829114,-1.020681c-0.22937,-0.795988 0.218349,-1.629528 1.001057,-1.858843c0.09913,-0.030968 4.212199,-1.249321 10.042287,-1.055597c0.971901,0.032291 1.991739,0.104767 3.048515,0.229965c7.090969,0.844744 12.362537,4.22307 12.467506,4.28303c0.688747,0.441481 0.898678,1.365957 0.465206,2.06706zm3.485874,-6.603119c-0.347935,0.562723 -0.951809,0.863194 -1.560219,0.842766c-0.301289,-0.00988 -0.605171,-0.098831 -0.877953,-0.274113c0,0 -0.063492,-0.04085 -0.228065,-0.13903c-0.16328,-0.096201 -0.411438,-0.240505 -0.737995,-0.418415c-0.65052,-0.352535 -1.607521,-0.840797 -2.80489,-1.358709c-2.390873,-1.032549 -5.734848,-2.175783 -9.468876,-2.613976c-1.145546,-0.134422 -2.252857,-0.213493 -3.308989,-0.247753c-5.544352,-0.188454 -9.704068,0.819046 -10.576836,1.054287c-0.124401,0.032946 -0.168458,0.046124 -0.168458,0.046124c-0.937555,0.278723 -1.919819,-0.26951 -2.194548,-1.222313c-0.274721,-0.95413 0.261771,-1.955038 1.201265,-2.233766c0.11922,-0.032946 4.973524,-1.472042 11.853906,-1.242742c1.14749,0.03756 2.35005,0.121906 3.597321,0.2695c8.372576,0.99828 14.588179,4.984134 14.714529,5.055959c0.827408,0.527142 1.078152,1.640076 0.559807,2.482182z"/>
 </g>
</svg>