<?xml version="1.0"?>
<svg width="50" height="50" xmlns="http://www.w3.org/2000/svg">

 <g>
  <title>background</title>
  <rect fill="none" id="canvas_background" height="52" width="52" y="-1" x="-1"/>
 </g>
 <g>
  <title>Layer 1</title>
  <polygon fill="#ffffff" id="svg_2" points="14.447665318846703,27.69375991821289 16.230665311217308,27.69375991821289 16.230665311217308,36.55075454711914 17.953664883971214,36.55075454711914 17.953664883971214,27.69375991821289 19.73466692864895,27.69375991821289 19.73466692864895,26.18575668334961 14.447665318846703,26.18575668334961 "/>
  <path fill="#ffffff" id="svg_3" d="m25.136869,19.688007c0.233999,0 0.42,-0.062 0.557001,-0.188999c0.136999,-0.131001 0.206999,-0.309 0.206999,-0.533001l0,-4.589999c0,-0.184 -0.07,-0.333999 -0.211,-0.445c-0.140999,-0.115 -0.323999,-0.172001 -0.552999,-0.172001c-0.208998,0 -0.379,0.057001 -0.511999,0.172001c-0.131001,0.111001 -0.195002,0.261999 -0.195002,0.445l0,4.589999c0,0.23 0.061001,0.408001 0.184,0.533001c0.121002,0.126999 0.297001,0.188999 0.523001,0.188999z"/>
  <path fill="#ffffff" id="svg_4" d="m29.154282,28.701555c-0.238003,0 -0.473003,0.060997 -0.705002,0.181999c-0.229,0.120998 -0.448999,0.300999 -0.654001,0.533001l0,-3.340002l-1.544998,0l0,10.364998l1.544998,0l0,-0.585999c0.198999,0.236 0.418001,0.408001 0.652,0.52c0.232,0.111 0.500002,0.166 0.801001,0.166c0.451,0 0.800999,-0.143002 1.036999,-0.432003c0.240002,-0.290997 0.361,-0.704998 0.361,-1.245998l0,-4.243999c0,-0.626997 -0.127001,-1.103998 -0.384998,-1.427999c-0.254002,-0.326 -0.623001,-0.489998 -1.106998,-0.489998zm-0.084003,5.950998c0,0.245998 -0.044998,0.419998 -0.132998,0.527c-0.088003,0.108997 -0.225002,0.161999 -0.412001,0.161999c-0.129,0 -0.25,-0.028999 -0.368999,-0.082001c-0.117001,-0.053001 -0.240002,-0.146 -0.361002,-0.27l0,-4.763998c0.104002,-0.106998 0.209002,-0.186001 0.314001,-0.234001c0.105,-0.052998 0.215,-0.076 0.323999,-0.076c0.205,0 0.365,0.066002 0.476999,0.197002c0.107002,0.134998 0.16,0.329996 0.16,0.589998l0,3.950001z"/>
  <path fill="#ffffff" id="svg_5" d="m23.133461,34.605553c-0.143,0.163998 -0.301001,0.299 -0.473,0.408001c-0.172001,0.106998 -0.316,0.16 -0.426001,0.16c-0.145,0 -0.247999,-0.039001 -0.313999,-0.121002c-0.062,-0.079998 -0.096001,-0.210999 -0.096001,-0.391003l0,-5.866993l-1.527,0l0,6.394997c0,0.457001 0.09,0.792999 0.268,1.025002c0.182001,0.226997 0.445,0.34 0.799,0.34c0.287001,0 0.584002,-0.078003 0.889,-0.242001c0.305,-0.166 0.598001,-0.400002 0.881001,-0.709l0,0.837997l1.529001,0l0,-7.645996l-1.529001,0l0,5.809998l-0.000999,0z"/>
  <path fill="#ffffff" id="svg_6" d="m25.070871,0.340531c-13.600002,0 -24.625002,11.025 -24.625002,24.625002c0,13.601999 11.024999,24.624998 24.625002,24.624998c13.599997,0 24.624998,-11.022999 24.624998,-24.624998c0,-13.600001 -11.026001,-24.625002 -24.624998,-24.625002zm3.978001,12.161998l1.718998,0l0,6.459002c0,0.201 0.039,0.344002 0.111,0.431999c0.07,0.09 0.188,0.137001 0.350002,0.137001c0.125,0 0.285,-0.061001 0.48,-0.178001c0.190998,-0.120998 0.368998,-0.270998 0.528997,-0.456999l0,-6.393002l1.723,0l0,8.424002l-1.723,0l0,-0.929998c-0.313997,0.341999 -0.644999,0.604998 -0.99,0.782999c-0.341999,0.177999 -0.674,0.27 -0.997997,0.27c-0.398003,0 -0.697002,-0.127003 -0.900002,-0.379002c-0.199001,-0.248001 -0.300999,-0.623001 -0.300999,-1.129l0,-7.039001zm-6.390001,1.926001c0,-0.65 0.230001,-1.169999 0.693001,-1.561001c0.465,-0.382998 1.087999,-0.577999 1.868999,-0.577999c0.712999,0 1.295,0.205 1.751999,0.611001c0.453001,0.406 0.680002,0.933999 0.680002,1.577999l0,4.350001c0,0.723 -0.223001,1.287001 -0.666002,1.695c-0.448999,0.408001 -1.061998,0.613001 -1.843998,0.613001c-0.752001,0 -1.355001,-0.211 -1.807001,-0.631002c-0.451,-0.425999 -0.677999,-0.995998 -0.677999,-1.710999l0,-4.366001l0.000999,0zm-4.688,-4.92l1.257999,4.562l0.123001,0l1.197001,-4.562l1.969,0l-2.254,6.681999l0,4.737003l-1.938002,0l0,-4.526003l-2.307001,-6.893l1.952002,0zm22.538998,24.033005c0,3.046997 -2.471001,5.519997 -5.517998,5.519997l-19.176003,0c-3.049,0 -5.52,-2.473 -5.52,-5.519997l0,-4.438004c0,-3.049 2.471,-5.52 5.52,-5.52l19.176003,0c3.046997,0 5.517998,2.471001 5.517998,5.52l0,4.438004z"/>
  <path fill="#ffffff" id="svg_7" d="m34.096889,28.496351c-0.686001,0 -1.239998,0.207001 -1.674,0.626999c-0.431997,0.415998 -0.65,0.959 -0.65,1.616997l0,3.437998c0,0.737999 0.199001,1.316002 0.592001,1.734001c0.392998,0.419998 0.931999,0.631001 1.617001,0.631001c0.761997,0 1.334,-0.197002 1.714996,-0.592003c0.387001,-0.397999 0.576,-0.987999 0.576,-1.772999l0,-0.393002l-1.571999,0l0,0.348003c0,0.451 -0.053001,0.741997 -0.152,0.872997s-0.277,0.197002 -0.530998,0.197002c-0.243999,0 -0.416,-0.076 -0.518002,-0.23c-0.099998,-0.158001 -0.147999,-0.436001 -0.147999,-0.84l0,-1.439003l2.922001,0l0,-1.952997c0,-0.722996 -0.186001,-1.276997 -0.562,-1.665997c-0.377003,-0.385998 -0.916,-0.578999 -1.615002,-0.578999zm0.604,3.007996l-1.349998,0l0,-0.772999c0,-0.320002 0.049,-0.553001 0.155998,-0.685997c0.107002,-0.143003 0.281002,-0.210999 0.525002,-0.210999c0.23,0 0.403999,0.067995 0.507999,0.210999c0.105,0.132996 0.16,0.364992 0.16,0.685997l0,0.772999l0.000999,0z"/>
 </g>
</svg>